<?xml version="1.0" encoding="UTF-8"?>
<svg width="2511px" height="2511px" viewBox="0 0 2511 2511" version="1.1" xmlns="http://www.w3.org/2000/svg" xmlns:xlink="http://www.w3.org/1999/xlink">
    <!-- Generator: Sketch 54.1 (76490) - https://sketchapp.com -->
    <title>Artboard</title>
    <desc>Created with Sketch.</desc>
    <g id="Artboard" stroke="none" stroke-width="1" fill="none" fill-rule="evenodd">
        <g id="logo-united-states-flag" transform="translate(6.000000, 494.000000)">
            <polygon id="Path" fill="#FFFFFF" points="0.833128908 0.833128908 2499.38672 0.833128908 2499.38672 1494.63326 0.833128908 1494.63326"></polygon>
            <path d="M0,1385.49337 L2498.5536,1385.49337 L2498.5536,1494.63326 L0,1494.63326 L0,1385.49337 Z M0,1163.88108 L2498.5536,1163.88108 L2498.5536,1273.03254 L0,1273.03254 L0,1163.88108 Z M0,931.438119 L2498.5536,931.438119 L2498.5536,1040.58958 L0,1040.58958 L0,931.438119 Z M0,699.828283 L2498.5536,699.828283 L2498.5536,808.12347 L0,808.12347 L0,699.828283 Z M0,467.385317 L2498.5536,467.385317 L2498.5536,576.525204 L0,576.525204 L0,467.385317 Z M0,235.775481 L2498.5536,235.775481 L2498.5536,344.915368 L0,344.915368 L0,235.775481 Z M0,0.833128908 L2498.5536,0.833128908 L2498.5536,112.472403 L0,112.472403 L0,0.833128908 Z" id="Shape" fill="#CC2229"></path>
            <polygon id="Path" fill="#33348E" points="0 0 823.131361 0 823.131361 808.135041 0 808.135041"></polygon>
            <path d="M727.321537,729.820924 L716.490861,698.995154 L742.317857,679.00006 L710.658959,679.00006 L701.494541,650.673677 L692.330123,679.00006 L659.004966,679.00006 L685.665091,698.995154 L675.667545,728.987795 L701.494541,710.658959 L727.321537,729.820924 L727.321537,729.820924 Z M98.3092112,729.820924 L108.306758,698.995154 L82.4797619,679.00006 L114.13866,679.00006 L124.136207,650.673677 L133.300625,679.00006 L165.792653,679.00006 L139.965657,698.995154 L149.963203,728.987795 L124.136207,710.658959 L98.3092112,729.820924 L98.3092112,729.820924 Z M234.109223,586.522751 L244.10677,554.863853 L219.112903,535.701888 L249.938672,535.701888 L259.936219,507.375505 L269.100637,535.701888 L301.592665,535.701888 L275.765669,554.863853 L285.763216,585.689622 L259.936219,567.360786 L234.109223,586.522751 L234.109223,586.522751 Z M234.109223,297.42702 L244.10677,265.768122 L219.112903,246.606157 L249.938672,246.606157 L259.936219,218.279774 L269.100637,246.606157 L301.592665,246.606157 L275.765669,265.768122 L285.763216,296.593891 L259.936219,277.431926 L234.109223,297.42702 L234.109223,297.42702 Z M537.368146,297.42702 L547.365693,265.768122 L521.538697,246.606157 L553.197595,246.606157 L563.195142,218.279774 L572.35956,246.606157 L604.851587,246.606157 L579.024591,265.768122 L589.022138,296.593891 L563.195142,277.431926 L537.368146,297.42702 L537.368146,297.42702 Z M537.368146,586.522751 L547.365693,554.863853 L521.538697,535.701888 L553.197595,535.701888 L563.195142,507.375505 L572.35956,535.701888 L604.851587,535.701888 L579.024591,554.863853 L589.022138,585.689622 L563.195142,567.360786 L537.368146,586.522751 L537.368146,586.522751 Z M430.727646,729.820924 L420.730099,698.995154 L445.723966,679.00006 L414.065067,679.00006 L404.900649,650.673677 L395.736231,679.00006 L363.244204,679.00006 L389.0712,698.995154 L379.073653,728.987795 L404.889078,710.658959 L430.727646,729.820924 L430.727646,729.820924 Z M724.82215,438.225806 L714.824603,407.400036 L740.651599,387.404942 L708.992701,387.404942 L698.995154,359.078559 L689.830736,387.404942 L657.338709,387.404942 L683.165705,407.400036 L673.168158,437.392677 L698.983583,419.063841 L724.82215,438.225806 L724.82215,438.225806 Z M95.8098244,438.225806 L106.6405,407.400036 L80.8135041,387.404942 L112.472403,387.404942 L122.46995,359.078559 L130.801239,387.404942 L163.293266,387.404942 L138.299399,407.400036 L147.463817,437.392677 L122.46995,419.063841 L95.8098244,438.225806 L95.8098244,438.225806 Z M430.727646,438.225806 L420.730099,407.400036 L445.723966,387.404942 L414.065067,387.404942 L404.900649,359.078559 L395.736231,387.404942 L363.244204,387.404942 L389.0712,407.400036 L379.073653,437.392677 L404.889078,419.063841 L430.727646,438.225806 L430.727646,438.225806 Z M724.82215,155.795106 L714.824603,124.969336 L739.81847,104.974242 L708.159572,104.974242 L698.995154,76.6478596 L689.830736,104.974242 L657.338709,104.974242 L683.165705,124.969336 L673.168158,154.961977 L698.983583,136.633141 L724.82215,155.795106 L724.82215,155.795106 Z M95.8098244,155.795106 L106.6405,124.969336 L80.8135041,104.974242 L112.472403,104.974242 L121.636821,76.6478596 L130.801239,104.974242 L163.293266,104.974242 L138.299399,124.969336 L147.463817,154.961977 L121.636821,136.633141 L95.8098244,155.795106 L95.8098244,155.795106 Z M378.240524,155.795106 L389.0712,124.969336 L362.411075,104.974242 L394.069974,104.974242 L404.06752,76.6478596 L413.231938,104.974242 L445.723966,104.974242 L419.89697,124.969336 L429.894517,154.961977 L404.06752,136.633141 L378.240524,155.795106 L378.240524,155.795106 Z" id="Shape" stroke="#FFFFFF" stroke-width="5.83190236" fill="#FFFFFF"></path>
            <polygon id="Path" stroke="#000000" stroke-width="1.21497966" points="0.833128908 0.833128908 2499.38672 0.833128908 2499.38672 1494.63326 0.833128908 1494.63326"></polygon>
        </g>
    </g>
</svg>