<?xml version="1.0" encoding="UTF-8"?>
<svg width="2555px" height="2555px" viewBox="0 0 2555 2555" version="1.1" xmlns="http://www.w3.org/2000/svg" xmlns:xlink="http://www.w3.org/1999/xlink">
    <!-- Generator: Sketch 54.1 (76490) - https://sketchapp.com -->
    <title>Artboard</title>
    <desc>Created with Sketch.</desc>
    <g id="Artboard" stroke="none" stroke-width="1" fill="none" fill-rule="evenodd">
        <g id="logo-netflix-2" transform="translate(28.000000, 900.000000)" fill="#D81F26" fill-rule="nonzero">
            <g id="logo-netflix">
                <path d="M343.757324,632.089844 C306.149902,638.693848 267.880859,640.673828 228.293457,645.947266 L107.546387,292.294922 L107.546387,661.125488 C69.9389648,665.083008 35.6298828,670.361328 0,675.639648 L0,0 L100.292969,0 L237.529297,383.352051 L237.529297,0 L343.757324,0 L343.757324,632.089844 Z M551.59668,247.426758 C592.507324,247.426758 655.187988,245.446777 692.79541,245.446777 L692.79541,351.013184 C645.947266,351.013184 591.186523,351.013184 551.59668,352.993164 L551.59668,510.029297 C613.620605,506.071777 675.64209,500.788574 738.320312,498.808594 L738.320312,600.412598 L446.025391,623.510742 L446.025391,0 L738.320312,0 L738.320312,105.568848 L551.59668,105.568848 L551.59668,247.426758 Z M1130.90332,105.571289 L1021.37695,105.571289 L1021.37695,591.186523 C985.74707,591.186523 950.117187,591.186523 915.812988,592.502441 L915.812988,105.571289 L806.286621,105.571289 L806.286621,0 L1130.9082,0 L1130.90332,105.571289 L1130.90332,105.571289 Z M1302.45117,240.170898 L1446.95068,240.170898 L1446.95068,345.737305 L1302.45117,345.737305 L1302.45117,585.249023 L1198.85498,585.249023 L1198.85498,0 L1493.79639,0 L1493.79639,105.568848 L1302.45117,105.568848 L1302.45117,240.170898 Z M1665.34424,492.873535 C1725.38818,494.189453 1786.08643,498.815918 1844.81201,502.109375 L1844.81201,606.359863 C1750.46143,600.41748 1656.1084,594.487305 1559.77783,592.502441 L1559.77783,0 L1665.34424,0 L1665.34424,492.873535 Z M1933.88428,613.618164 C1967.53418,615.600586 2003.16406,617.580566 2037.47314,621.533203 L2037.47314,0 L1933.88428,0 L1933.88428,613.618164 Z M2500,0 L2366.05713,321.325684 L2500,675.639648 C2460.40771,670.361328 2420.82031,663.103027 2381.23047,656.503906 L2305.35645,461.206055 L2228.1665,640.673828 C2189.89014,634.069824 2152.94189,632.089844 2114.68018,626.811523 L2250.59814,317.363281 L2127.87109,0 L2241.35254,0 L2310.63232,177.487793 L2384.53369,0 L2500,0 Z" id="Shape"></path>
            </g>
        </g>
    </g>
</svg>