<?xml version="1.0" encoding="UTF-8"?>
<svg width="2512px" height="2512px" viewBox="0 0 2512 2512" version="1.1" xmlns="http://www.w3.org/2000/svg" xmlns:xlink="http://www.w3.org/1999/xlink">
    <!-- Generator: Sketch 54.1 (76490) - https://sketchapp.com -->
    <title>Artboard</title>
    <desc>Created with Sketch.</desc>
    <g id="Artboard" stroke="none" stroke-width="1" fill="none" fill-rule="evenodd">
        <g id="logo-sass" transform="translate(0.000000, 320.000000)" fill="#CF649A" fill-rule="nonzero">
            <path d="M2156.25,1077.14844 C2068.84766,1077.6416 1993.16406,1098.63281 1929.6875,1129.8877 C1906.25,1083.50098 1882.8125,1042.96875 1878.91113,1012.7002 C1874.5166,977.543945 1869.14551,956.054687 1874.5166,914.067383 C1879.88281,872.070313 1904.29688,812.5 1904.29688,807.617188 C1903.80371,803.222656 1898.9209,781.738281 1848.63281,781.25 C1798.34473,780.761719 1754.88281,791.015625 1750,804.199219 C1745.11719,817.382812 1735.35156,847.65625 1729.00391,878.90625 C1720.21484,924.804688 1628.41797,1087.40234 1576.17188,1172.85156 C1559.08203,1139.64844 1544.43359,1110.35156 1541.49902,1086.90918 C1537.10938,1051.75781 1531.7334,1030.26855 1537.10938,988.28125 C1542.48047,946.28418 1566.89453,886.71875 1566.89453,881.835937 C1566.40625,877.441406 1561.52344,855.957031 1511.23535,855.46875 C1460.9375,854.980469 1417.48535,865.234375 1412.60254,878.417969 C1407.71973,891.601562 1402.34863,922.851562 1391.60645,953.125 C1381.34766,983.398438 1259.27734,1254.88281 1227.53906,1325.68359 C1211.42578,1361.81641 1197.27051,1390.625 1187.01172,1410.15625 C1176.75781,1429.6875 1186.52344,1411.62109 1185.54688,1413.57422 C1176.75781,1430.17578 1171.875,1439.45312 1171.875,1439.45312 L1171.875,1439.94629 C1165.03906,1452.15332 1157.71484,1463.86719 1154.29199,1463.86719 C1151.85059,1463.86719 1146.96777,1431.15234 1155.26855,1386.23535 C1173.33496,1291.99219 1217.28027,1145.02441 1216.79688,1139.65332 C1216.79688,1137.21191 1225.09277,1111.32812 1188.47168,1098.14941 C1152.82715,1084.96582 1140.13672,1106.93848 1137.20215,1106.93848 C1134.27246,1106.93848 1131.83105,1114.75098 1131.83105,1114.75098 C1131.83105,1114.75098 1171.38184,949.228516 1056.14746,949.228516 C983.881836,949.228516 884.272461,1027.8418 834.956055,1099.61914 C803.706055,1116.70898 737.299805,1152.83691 666.987305,1191.41602 C640.131836,1206.06445 612.299805,1221.68945 585.932617,1235.84961 L580.566406,1229.98047 C440.917969,1081.05469 182.617188,975.585937 193.359375,775.390625 C197.265625,702.636719 222.65625,510.742188 689.458008,278.320313 C1071.78223,87.890625 1377.93457,140.136719 1431.15234,256.347656 C1506.83594,422.363281 1267.57813,730.957031 870.12207,775.390625 C718.754883,792.480469 639.160156,733.886719 619.145508,711.914062 C598.149414,688.964844 595.219727,687.988281 587.407227,692.382812 C574.711914,699.21875 582.524414,719.726562 587.407227,731.933594 C599.125977,762.695313 647.954102,817.382813 730.961914,844.726562 C803.710938,868.652344 981.450195,881.835938 1196.29395,798.828125 C1437.0166,705.566406 1625.00488,446.777344 1569.8291,230.46875 C1513.67676,10.2539062 1148.44238,-62.0117188 803.227539,60.546875 C597.65625,133.789062 375,248.046875 214.84375,397.949219 C24.4140625,575.683594 -5.859375,730.957031 6.8359375,795.410156 C51.2744141,1025.39062 368.164063,1175.29297 495.117188,1286.13281 C488.769531,1289.5459 482.910156,1292.96387 477.539063,1295.89844 C414.0625,1327.14355 172.363281,1453.61328 111.816406,1587.39746 C43.4570313,1738.76465 122.558594,1847.65625 175.292969,1862.30469 C338.378906,1907.71484 505.371094,1826.17188 595.703125,1691.89453 C685.541992,1557.61719 674.804688,1383.30078 633.300781,1303.71094 L631.831055,1300.78125 L681.635742,1271.48437 C713.867188,1252.44141 745.605469,1234.86328 773.432617,1219.72168 C757.8125,1262.20215 746.577148,1312.49512 740.722656,1385.7373 C733.886719,1471.67969 769.042969,1583.00293 815.429688,1626.94824 C835.9375,1645.98633 860.351562,1646.47949 875.488281,1646.47949 C929.199219,1646.47949 953.613281,1602.04102 980.46875,1548.82324 C1013.67188,1483.88184 1042.96875,1408.68652 1042.96875,1408.68652 C1042.96875,1408.68652 1006.34766,1612.2998 1106.44531,1612.2998 C1143.06641,1612.2998 1179.6875,1564.93652 1196.28906,1540.52246 L1196.28906,1541.01074 C1196.28906,1541.01074 1197.26563,1539.5459 1199.21875,1536.12793 C1201.26751,1533.09859 1203.22158,1530.00627 1205.07812,1526.85547 L1205.07812,1525.87891 C1219.72656,1500.48828 1252.44141,1442.38281 1301.26953,1346.19141 C1364.25293,1222.16797 1424.80469,1066.89453 1424.80469,1066.89453 C1424.80469,1066.89453 1430.66406,1104.98047 1448.73047,1167.48047 C1459.46777,1204.59473 1482.90527,1245.11719 1500.97168,1284.66797 C1486.32324,1305.17578 1477.53418,1316.89941 1477.53418,1316.89941 L1478.02246,1317.3877 C1466.30859,1333.0127 1453.12012,1349.61914 1439.45313,1366.21582 C1389.64844,1425.78613 1330.07813,1493.66211 1322.26563,1513.19336 C1312.98828,1536.1377 1314.94141,1553.22754 1333.00781,1566.9043 C1346.19141,1576.66992 1369.62891,1578.61816 1394.53125,1576.66992 C1439.45313,1573.73535 1470.70313,1562.50977 1486.32813,1555.66895 C1510.74219,1546.87988 1538.57422,1533.69629 1565.42969,1514.16504 C1614.25781,1478.03711 1644.04297,1426.76758 1641.11328,1358.4082 C1639.64844,1320.81055 1627.44141,1283.70117 1612.30469,1248.54492 C1616.69922,1242.19727 1621.09863,1235.84473 1625.48828,1229.01367 C1702.63672,1116.21582 1762.20703,992.197266 1762.20703,992.197266 C1762.20703,992.197266 1768.06641,1030.2832 1786.13281,1092.7832 C1795.40527,1124.52148 1813.96484,1159.19434 1830.56641,1193.37402 C1758.30078,1252.45605 1712.89063,1320.81543 1697.26563,1365.7373 C1668.45703,1448.74512 1690.91797,1486.34277 1733.39844,1495.13184 C1752.43652,1499.03809 1779.78516,1490.24902 1800.28809,1481.45996 C1825.67871,1473.15918 1856.44043,1458.99414 1884.76563,1438.00293 C1933.59375,1401.87012 1980.46875,1351.57715 1978.02734,1283.70605 C1976.5625,1252.45605 1968.26172,1221.69434 1957.03125,1192.39746 C2018.55469,1167.00684 2098.13965,1152.3584 2199.21875,1164.56543 C2416.50391,1189.95605 2459.47266,1325.69824 2451.17676,1382.33887 C2442.87598,1438.98438 2397.46582,1470.22949 2382.32422,1479.99512 C2367.1875,1489.27246 2362.30469,1492.69531 2363.76953,1499.52637 C2365.72266,1509.78516 2372.55859,1509.29199 2385.74219,1507.34375 C2403.80859,1504.40918 2500,1460.95703 2503.90625,1356.46973 C2509.76562,1222.17285 2382.32422,1075.68848 2156.25,1077.14844 L2156.25,1077.14844 Z M480.46875,1642.08984 C408.691406,1720.70313 307.617188,1750.48828 264.648438,1725.09766 C218.261719,1698.24219 236.323242,1582.51953 324.707031,1499.02344 C378.417969,1448.24219 448.242188,1401.36719 494.140625,1372.55859 C504.394531,1366.21094 520.019531,1356.93848 538.574219,1345.70313 C541.503906,1343.75488 543.457031,1342.77344 543.457031,1342.77344 C546.875,1340.82031 550.78125,1338.37891 554.6875,1335.9375 C587.402344,1455.07813 556.152344,1559.57031 480.46875,1642.08984 L480.46875,1642.08984 Z M1005.37109,1285.15625 C980.46875,1346.19141 927.734375,1502.92969 895.996094,1494.14063 C868.647461,1486.81641 852.050781,1368.16406 890.620117,1250.97656 C910.151367,1191.88965 951.655273,1121.58203 976.069336,1094.2334 C1015.625,1050.28809 1058.58887,1035.63965 1069.33594,1053.70605 C1082.03125,1077.14844 1020.99609,1247.07031 1005.37109,1285.15625 Z M1438.47656,1492.1875 C1427.73438,1497.56348 1417.96875,1501.46484 1413.57422,1498.54004 C1410.15625,1496.58691 1417.96387,1489.2627 1417.96387,1489.2627 C1417.96387,1489.2627 1472.16309,1431.15723 1493.64746,1404.30176 C1505.85449,1388.68164 1520.50293,1370.61523 1536.12793,1350.10254 L1536.12793,1355.96191 C1536.13281,1426.26953 1468.75,1473.14453 1438.47656,1492.1875 Z M1772.45605,1416.01562 C1764.64355,1410.15625 1765.625,1392.08984 1791.9873,1335.44922 C1802.24609,1312.98828 1825.67871,1275.39062 1866.20605,1239.74609 C1871.08887,1254.39453 1874.02344,1268.5498 1873.53027,1281.73828 C1873.04688,1369.62891 1810.54688,1402.34375 1772.45605,1416.01562 Z" id="Shape"></path>
        </g>
    </g>
</svg>